<?xml version="1.0" standalone="no"?>
<!DOCTYPE svg PUBLIC "-//W3C//DTD SVG 20010904//EN"
 "http://www.w3.org/TR/2001/REC-SVG-20010904/DTD/svg10.dtd">
<svg version="1.0" xmlns="http://www.w3.org/2000/svg"
 width="452.000000pt" height="452.000000pt" viewBox="0 0 452.000000 452.000000"
 preserveAspectRatio="xMidYMid meet">

<g transform="translate(0.000000,452.000000) scale(0.100000,-0.100000)"
fill="#000000" stroke="none">
<path d="M1672 4396 c-40 -51 -57 -140 -56 -296 0 -127 3 -152 23 -204 13 -32
38 -75 56 -95 20 -23 34 -51 39 -78 6 -41 6 -41 -38 -63 -82 -39 -161 -96
-208 -150 -45 -51 -168 -256 -168 -279 0 -16 -19 -14 -289 24 -134 19 -247 32
-252 29 -5 -3 -9 -13 -9 -23 0 -15 35 -25 241 -67 132 -27 246 -52 252 -56 8
-5 7 -16 -4 -40 l-16 -32 -286 3 c-286 3 -287 3 -287 -18 0 -12 1 -21 3 -22 1
0 120 -11 265 -23 144 -13 264 -25 267 -28 7 -7 -15 -70 -29 -84 -6 -6 -108
-28 -226 -49 -264 -45 -249 -41 -243 -65 7 -25 13 -25 248 0 103 12 189 19
192 17 10 -10 -30 -83 -67 -123 -102 -111 -213 -319 -284 -535 -79 -237 -122
-492 -133 -780 -7 -185 1 -239 45 -302 31 -46 110 -94 169 -103 23 -3 46 -11
51 -18 5 -6 24 -56 42 -111 86 -261 219 -494 384 -673 l58 -62 848 0 847 0 49
53 c180 192 326 453 414 742 17 55 24 62 72 69 101 16 184 92 209 191 26 103
-4 485 -57 739 -65 309 -206 624 -349 784 -42 47 -82 118 -72 129 3 2 90 -5
194 -16 234 -26 239 -26 246 -1 6 24 19 20 -238 65 -115 20 -216 39 -224 44
-15 8 -45 81 -36 89 2 3 109 13 237 23 295 24 298 25 298 50 0 21 -3 21 -286
18 l-287 -4 -15 32 c-9 18 -13 35 -10 39 3 3 117 28 252 57 208 43 246 54 246
68 0 10 -4 20 -9 23 -5 3 -118 -10 -252 -29 -270 -38 -289 -40 -289 -24 0 7
-28 62 -62 123 -79 139 -160 223 -275 286 l-82 45 6 40 c4 25 19 55 39 79 62
73 78 132 78 296 1 123 -2 156 -21 216 -12 39 -31 78 -42 88 -18 17 -21 17
-55 1 -74 -35 -167 -167 -211 -300 -25 -73 -27 -89 -22 -188 3 -64 1 -120 -5
-138 -10 -29 -11 -29 -62 -22 -66 10 -386 10 -452 0 -51 -7 -52 -7 -62 22 -6
18 -8 74 -5 138 5 99 3 115 -21 188 -51 149 -152 284 -232 309 -16 5 -27 0
-42 -18z m145 -936 c98 -59 77 -214 -34 -251 -89 -29 -183 42 -183 137 0 36
36 97 68 117 37 23 109 21 149 -3z m1054 -18 c64 -64 65 -140 3 -199 -86 -81
-220 -32 -232 85 -8 91 48 152 142 152 43 0 53 -4 87 -38z m-504 -163 c59 -22
22 -78 -67 -99 -92 -22 -219 45 -166 89 34 28 170 34 233 10z m-41 -755 c55
-26 141 -140 121 -161 -4 -4 -38 9 -75 28 -89 45 -135 45 -224 0 -37 -19 -71
-31 -75 -27 -10 10 33 88 65 119 60 57 124 71 188 41z m-522 -124 c41 -38 84
-106 73 -116 -3 -3 -32 4 -66 16 -103 34 -142 25 -233 -59 -47 -43 -59 -50
-64 -37 -9 23 22 99 60 149 46 60 90 87 143 87 37 0 50 -6 87 -40z m1077 17
c65 -43 141 -172 125 -213 -5 -13 -17 -6 -64 37 -91 84 -130 93 -233 59 -34
-12 -63 -19 -66 -16 -11 10 32 78 73 116 37 34 50 40 87 40 29 0 55 -8 78 -23z
m-811 -273 c48 -24 110 -104 110 -141 0 -13 -2 -23 -4 -23 -2 0 -33 16 -70 35
-47 24 -81 35 -111 35 -30 0 -63 -10 -109 -35 -37 -19 -68 -35 -71 -35 -14 0
-2 41 24 82 60 94 147 125 231 82z m543 -11 c40 -25 97 -105 97 -135 0 -10 -2
-18 -5 -18 -3 0 -34 16 -71 35 -46 25 -79 35 -109 35 -30 0 -64 -11 -111 -35
-37 -19 -68 -35 -70 -35 -15 0 1 54 25 86 39 54 63 74 108 89 47 16 86 10 136
-22z m-1012 -136 c40 -27 92 -98 87 -120 -3 -13 -11 -12 -58 8 -96 42 -144 33
-248 -47 -29 -22 -55 -38 -59 -34 -24 24 64 156 132 197 42 26 104 24 146 -4z
m1475 -3 c65 -42 144 -167 120 -191 -3 -3 -29 13 -58 35 -104 80 -152 89 -248
47 -47 -20 -55 -21 -58 -8 -5 22 47 93 87 120 47 32 106 30 157 -3z m-1975
-719 c62 -174 158 -324 289 -456 384 -388 967 -479 1450 -227 187 97 342 237
460 415 73 110 113 198 155 334 l25 84 -5 -60 c-55 -585 -488 -1072 -1029
-1160 -507 -82 -1007 182 -1254 662 -93 180 -140 354 -148 538 l-4 110 19 -90
c11 -49 30 -117 42 -150z"/>
<path d="M1696 3394 c-61 -61 14 -158 82 -107 54 40 32 123 -33 123 -18 0 -41
-7 -49 -16z"/>
<path d="M2725 3386 c-22 -34 -15 -75 17 -99 68 -51 143 46 82 107 -25 25 -81
20 -99 -8z"/>
</g>
</svg>
