<?xml version="1.0" standalone="no"?>
<!DOCTYPE svg PUBLIC "-//W3C//DTD SVG 20010904//EN"
 "http://www.w3.org/TR/2001/REC-SVG-20010904/DTD/svg10.dtd">
<svg version="1.0" xmlns="http://www.w3.org/2000/svg"
 width="550.000000pt" height="622.000000pt" viewBox="0 0 550.000000 622.000000"
 preserveAspectRatio="xMidYMid meet">

<g transform="translate(0.000000,622.000000) scale(0.100000,-0.100000)"
fill="#000000" stroke="none">
<path d="M0 3110 l0 -3110 2750 0 2750 0 0 3110 0 3110 -2750 0 -2750 0 0
-3110z m2901 2155 c795 -105 1420 -694 1581 -1486 20 -101 23 -143 23 -361 l0
-247 83 -37 c83 -37 230 -129 287 -179 l30 -27 -40 22 c-297 166 -364 195
-645 275 -212 61 -414 105 -481 105 -92 0 -142 29 -105 59 8 7 24 42 36 78 18
55 20 80 15 142 -5 58 -4 72 5 61 9 -12 10 -9 5 15 -4 17 -6 44 -5 60 3 45 3
112 -2 190 -3 69 -29 132 -62 152 -7 5 -22 23 -35 41 -12 17 -27 32 -33 32
-43 0 -176 192 -146 212 9 5 4 8 -13 8 -19 0 -32 10 -50 38 -14 22 -43 46 -71
60 -46 23 -46 23 -36 59 11 39 5 86 -19 146 -19 48 -28 37 -42 -52 -7 -45 -7
-68 1 -80 17 -28 3 -52 -24 -43 -42 15 -160 -4 -222 -35 -24 -12 -30 -13 -37
-1 -5 7 -7 19 -4 27 6 15 -75 161 -89 161 -5 0 -6 -38 -4 -85 4 -74 7 -88 26
-101 12 -8 20 -19 17 -24 -3 -4 0 -10 6 -12 7 -2 -3 -23 -24 -51 -23 -30 -38
-63 -43 -93 -5 -33 -12 -48 -28 -54 -15 -6 -16 -9 -5 -9 12 -1 15 -8 12 -25
-4 -17 -17 -29 -50 -41 -24 -9 -42 -19 -40 -21 2 -2 20 3 40 11 46 19 47 19
47 -4 0 -10 -10 -26 -22 -35 -14 -9 -16 -13 -6 -10 12 4 5 -18 -28 -82 -24
-48 -44 -98 -44 -110 0 -12 -5 -45 -12 -73 -11 -47 -9 -59 18 -143 19 -60 38
-99 57 -117 15 -14 27 -37 27 -50 0 -16 4 -21 15 -17 15 5 18 0 30 -79 7 -43
66 -151 93 -172 10 -6 29 -15 45 -18 55 -13 23 -41 -97 -83 -112 -41 -117 -41
-106 0 7 21 5 54 -4 102 -8 39 -17 89 -21 111 -10 57 -67 131 -113 146 -20 6
-51 28 -69 49 -17 20 -50 44 -72 54 -22 11 -38 22 -36 27 8 11 -25 89 -37 89
-7 0 -9 -20 -5 -54 4 -40 2 -54 -6 -51 -7 2 -32 -6 -57 -18 l-45 -22 -38 40
-39 40 6 -35 c4 -19 16 -44 27 -56 18 -19 19 -25 8 -45 -6 -13 -13 -52 -14
-88 -1 -37 -7 -91 -13 -123 -15 -79 3 -136 63 -191 25 -23 45 -46 45 -50 0
-19 53 -76 75 -81 14 -4 25 -11 25 -16 0 -5 -38 -29 -85 -53 -67 -35 -85 -41
-85 -28 0 20 -53 77 -79 86 -11 3 -23 14 -26 24 -3 10 -16 23 -29 29 -16 7
-26 22 -30 45 -4 20 -15 46 -26 59 l-19 23 -1 -56 c0 -44 -4 -58 -17 -63 -10
-4 -20 -1 -25 9 -5 8 -20 27 -33 43 l-24 27 -1 -35 c0 -19 7 -48 15 -64 9 -17
15 -41 13 -55 -1 -14 3 -57 11 -96 14 -71 41 -115 70 -115 8 0 -20 -34 -63
-77 -91 -89 -150 -175 -172 -251 -14 -46 -14 -69 -5 -143 14 -110 55 -271 79
-313 23 -41 175 -154 275 -206 78 -40 81 -40 156 -34 162 13 258 52 340 139
90 95 121 187 121 361 0 107 -1 114 -26 143 -38 45 -100 78 -189 101 -139 36
-191 23 -293 -73 -88 -84 -96 -111 -61 -218 26 -79 60 -113 128 -128 120 -26
157 -7 191 94 25 75 21 87 -36 105 -29 10 -39 9 -59 -4 -34 -22 -31 -34 8 -38
43 -4 49 -37 12 -74 -28 -28 -60 -27 -117 2 -47 24 -62 116 -28 172 44 73 157
91 256 41 67 -34 88 -66 89 -137 0 -74 -51 -187 -108 -238 -117 -106 -275 -99
-403 18 -79 72 -106 168 -85 295 38 219 278 398 615 458 123 22 318 16 449
-14 224 -51 478 -161 556 -239 104 -105 269 -393 329 -574 49 -148 42 -257
-29 -465 -26 -75 -129 -304 -115 -253 3 8 23 71 46 140 88 270 92 450 14 629
-22 49 -26 52 -42 40 -11 -8 -57 -43 -103 -77 -616 -468 -1484 -492 -2129 -59
-115 77 -206 154 -315 269 -244 254 -403 559 -476 915 -30 143 -37 458 -15
613 110 750 651 1352 1383 1536 210 52 472 68 684 39z m383 -867 c8 -14 7 -21
-6 -34 -24 -24 -68 -11 -68 20 0 12 3 26 7 30 12 12 56 2 67 -16z m-144 -38
c0 -5 -6 -10 -12 -10 -7 -1 -32 -5 -55 -9 -50 -10 -58 4 -10 18 44 13 77 13
77 1z m-200 -15 c15 -18 6 -61 -16 -69 -24 -9 -54 12 -54 37 0 43 44 63 70 32z
m185 -85 c-3 -5 -11 -10 -16 -10 -6 0 -7 5 -4 10 3 6 11 10 16 10 6 0 7 -4 4
-10z m240 -113 c96 -56 190 -150 205 -208 7 -24 20 -64 30 -89 12 -29 21 -88
26 -158 6 -94 4 -123 -11 -172 -10 -33 -22 -60 -26 -60 -5 0 -18 -18 -29 -40
-22 -42 -57 -71 -93 -75 -12 -2 -45 -12 -73 -23 -61 -24 -199 -52 -258 -52
-22 0 -64 11 -93 24 -28 13 -54 22 -56 19 -9 -9 -65 26 -92 59 -36 43 -72 124
-91 207 -9 36 -20 71 -25 77 -16 19 7 213 33 280 22 60 24 66 27 84 0 6 28 37
60 69 52 52 66 61 118 71 32 6 78 17 103 25 76 24 162 10 245 -38z m-915 -563
c0 -17 -26 -19 -36 -3 -7 12 15 31 28 23 4 -3 8 -12 8 -20z m-84 -29 c-11 -8
-25 -15 -30 -15 -6 1 0 7 14 15 32 19 40 18 16 0z m-73 -30 c7 -17 -8 -29 -28
-21 -17 6 -9 36 10 36 7 0 15 -7 18 -15z m226 -41 c91 -30 181 -156 181 -254
0 -103 -110 -190 -240 -190 -61 0 -104 28 -153 103 -36 53 -39 63 -39 130 -2
124 47 191 157 218 44 10 42 10 94 -7z m-416 -471 c4 -3 2 -12 -4 -20 -9 -10
-15 -10 -25 -2 -8 6 -11 15 -8 20 6 11 28 12 37 2z m-65 -40 c-2 -10 -10 -18
-18 -18 -8 0 -16 8 -18 18 -2 12 3 17 18 17 15 0 20 -5 18 -17z"/>
<path d="M2313 5170 c-31 -28 -36 -55 -19 -88 35 -68 136 -39 136 38 0 28 -43
70 -73 70 -13 0 -33 -9 -44 -20z m65 -23 c2 -10 -3 -17 -12 -17 -18 0 -29 16
-21 31 9 14 29 6 33 -14z m-35 -49 c-7 -13 -33 -9 -33 5 0 8 3 16 6 20 8 8 33
-16 27 -25z"/>
<path d="M1942 4783 c-17 -6 -42 -57 -42 -83 0 -58 92 -91 141 -51 33 27 33
95 0 122 -22 18 -70 24 -99 12z m43 -43 c0 -8 -8 -16 -17 -18 -13 -2 -18 3
-18 18 0 15 5 20 18 18 9 -2 17 -10 17 -18z m55 -31 c0 -25 -33 -22 -38 4 -2
12 3 17 17 17 15 0 21 -6 21 -21z"/>
<path d="M2011 4521 c-66 -17 -80 -115 -21 -146 39 -20 62 -19 93 5 69 55 14
163 -72 141z m67 -54 c2 -12 -3 -17 -17 -17 -15 0 -21 6 -21 21 0 25 33 22 38
-4z m-61 -18 c1 -14 -3 -19 -15 -17 -24 5 -28 38 -5 38 12 0 19 -8 20 -21z"/>
<path d="M1550 4449 c0 -4 -10 -9 -22 -12 -12 -4 -19 -9 -15 -13 4 -4 3 -12
-2 -18 -14 -17 -21 -76 -8 -76 5 0 7 -3 4 -6 -13 -13 48 -54 80 -54 39 0 90
43 97 81 6 36 -20 85 -52 98 -28 12 -82 12 -82 0z m57 -50 c1 -13 0 -18 -3
-10 -5 11 -8 11 -15 0 -8 -12 -11 -12 -18 1 -7 9 -6 19 1 27 16 19 33 10 35
-18z m43 -49 c0 -24 -26 -38 -42 -22 -16 16 -2 42 22 42 13 0 20 -7 20 -20z"/>
<path d="M3438 4383 c7 -3 16 -2 19 1 4 3 -2 6 -13 5 -11 0 -14 -3 -6 -6z"/>
<path d="M3453 4333 c15 -2 37 -2 50 0 12 2 0 4 -28 4 -27 0 -38 -2 -22 -4z"/>
<path d="M3483 4273 c9 -2 23 -2 30 0 6 3 -1 5 -18 5 -16 0 -22 -2 -12 -5z"/>
<path d="M2708 4223 c7 -3 16 -2 19 1 4 3 -2 6 -13 5 -11 0 -14 -3 -6 -6z"/>
<path d="M1401 3957 c-6 -6 -11 -8 -11 -4 0 3 -12 -5 -27 -19 -34 -31 -36 -89
-5 -129 12 -15 22 -24 22 -20 0 4 6 3 13 -2 18 -15 57 -22 57 -11 0 5 4 7 9 3
5 -3 17 2 25 11 9 8 16 12 17 7 1 -12 21 39 26 63 5 31 -12 71 -39 88 -31 20
-73 27 -87 13z m69 -47 c0 -24 -26 -38 -42 -22 -16 16 -2 42 22 42 13 0 20 -7
20 -20z m-67 -37 c-5 -12 -3 -14 7 -8 8 5 11 3 8 -6 -3 -8 -14 -15 -26 -17
-16 -3 -22 2 -22 16 0 22 8 32 26 32 8 0 11 -6 7 -17z"/>
<path d="M1165 3745 c-45 -44 -25 -117 34 -130 32 -7 68 7 87 34 30 41 -18
121 -72 121 -14 0 -36 -11 -49 -25z m44 -41 c-9 -11 -15 -12 -25 -3 -11 9 -12
15 -3 25 9 11 15 12 25 3 11 -9 12 -15 3 -25z m16 -45 c0 -7 -8 -15 -17 -17
-12 -2 -18 3 -18 16 0 14 6 19 18 18 9 -2 17 -9 17 -17z"/>
<path d="M1318 3574 c-32 -17 -48 -43 -48 -78 0 -40 10 -56 49 -75 31 -16 41
-17 66 -7 43 18 59 42 58 84 -1 28 -8 43 -32 62 -36 30 -56 33 -93 14z m39
-40 c3 -8 1 -20 -5 -26 -15 -15 -43 8 -35 28 7 19 32 18 40 -2z m63 -30 c0
-19 -28 -30 -42 -16 -8 8 -8 15 1 26 14 17 41 10 41 -10z"/>
<path d="M1039 3411 c-32 -32 -39 -82 -15 -113 20 -27 77 -48 98 -37 10 5 18
7 18 4 0 -3 9 4 21 16 12 12 24 38 26 60 5 33 1 42 -25 69 -41 40 -83 41 -123
1z m91 -20 c0 -27 -19 -36 -37 -18 -18 18 -9 37 18 37 12 0 19 -7 19 -19z
m-48 -45 c6 4 9 1 6 -7 -3 -8 -12 -15 -21 -17 -22 -4 -35 27 -16 39 9 6 15 4
17 -6 2 -9 8 -12 14 -9z"/>
<path d="M1289 3121 c-51 -41 -17 -131 50 -131 34 0 46 9 65 44 37 73 -50 140
-115 87z m36 -38 c-2 -10 -4 -20 -4 -22 -1 -2 -8 2 -16 9 -16 14 -11 30 10 30
7 0 12 -8 10 -17z m60 -3 c0 -8 -8 -16 -17 -18 -13 -2 -18 3 -18 18 0 15 5 20
18 18 9 -2 17 -10 17 -18z"/>
<path d="M1508 3007 c-19 -15 -38 -58 -38 -87 0 -28 47 -78 80 -85 29 -6 87
16 102 39 4 6 8 28 8 50 0 57 -33 91 -90 94 -26 1 -52 -4 -62 -11z m80 -31 c6
-29 -15 -43 -35 -24 -14 14 -14 20 -3 33 16 19 34 15 38 -9z m-54 -51 c-5 -11
-2 -13 11 -9 13 5 16 3 13 -7 -2 -8 -14 -15 -26 -17 -16 -3 -22 2 -22 16 0 20
8 32 21 32 5 0 6 -7 3 -15z"/>
<path d="M1095 2946 c-38 -30 -43 -91 -11 -131 13 -16 30 -30 39 -32 10 -2 25
-5 35 -7 42 -9 83 32 89 88 4 35 1 47 -19 70 -33 38 -93 44 -133 12z m111 -27
c3 -6 -1 -18 -10 -27 -15 -15 -17 -15 -32 0 -19 19 -11 38 16 38 10 0 22 -5
26 -11z m-75 -26 c-11 -5 -11 -7 0 -14 11 -6 11 -11 2 -20 -9 -9 -15 -9 -27 0
-20 17 -9 41 18 40 12 0 16 -3 7 -6z"/>
<path d="M1310 2804 c-49 -27 -72 -114 -37 -136 7 -4 8 -8 3 -8 -9 0 32 -39
43 -41 57 -8 75 -4 107 26 36 34 42 63 24 109 -19 50 -93 77 -140 50z m38 -33
c19 -11 11 -45 -11 -49 -19 -4 -32 20 -23 43 6 17 15 19 34 6z m77 -46 c0 -21
-31 -33 -46 -18 -5 5 -7 17 -3 27 9 24 49 17 49 -9z"/>
<path d="M1339 2461 c-32 -25 -33 -73 -3 -106 57 -61 150 -5 123 75 -18 51
-76 67 -120 31z m69 -22 c1 -9 -6 -15 -18 -16 -11 -1 -20 4 -20 11 0 29 32 33
38 5z m27 -50 c0 -7 -8 -15 -17 -17 -18 -3 -25 18 -11 32 10 10 28 1 28 -15z"/>
<path d="M2955 2430 c-4 -6 -11 -7 -17 -4 -6 4 -8 2 -5 -3 4 -6 0 -13 -8 -16
-16 -7 -30 -67 -21 -100 5 -21 46 -78 46 -64 0 3 13 2 29 -3 22 -6 40 -3 70
12 23 11 39 24 36 28 -3 5 -1 11 5 15 16 10 11 78 -8 101 -9 12 -27 27 -39 33
-27 14 -80 14 -88 1z m53 -32 c17 -17 15 -31 -4 -24 -12 4 -15 2 -10 -9 7 -19
-8 -19 -24 0 -10 12 -10 18 0 30 15 18 22 19 38 3z m60 -64 c3 -22 -21 -39
-39 -28 -11 6 -12 38 -2 48 13 13 38 1 41 -20z"/>
<path d="M1566 2408 c-24 -13 -57 -75 -54 -100 5 -30 39 -88 50 -82 4 3 8 0 8
-6 0 -6 5 -8 10 -5 6 3 10 2 10 -2 0 -5 14 -9 30 -8 17 0 30 4 30 8 0 5 4 6 9
2 5 -3 12 -1 16 5 4 6 11 7 17 4 7 -4 8 -2 4 4 -4 7 -3 12 2 12 12 0 33 56 25
64 -4 3 -1 6 6 6 9 0 9 5 1 20 -6 11 -7 20 -3 20 4 0 0 5 -10 11 -9 6 -15 14
-12 19 3 4 -11 15 -30 24 -34 17 -83 18 -109 4z m102 -37 c21 -13 10 -46 -16
-49 -27 -4 -40 22 -22 43 14 17 20 18 38 6z m-63 -46 c0 -22 -31 -33 -47 -17
-17 17 -1 44 24 40 15 -2 23 -10 23 -23z"/>
<path d="M1585 2330 c-3 -5 -1 -10 4 -10 6 0 11 5 11 10 0 6 -2 10 -4 10 -3 0
-8 -4 -11 -10z"/>
<path d="M3230 4384 c0 -9 5 -14 12 -12 18 6 21 28 4 28 -9 0 -16 -7 -16 -16z"/>
<path d="M2895 4330 c-3 -6 1 -13 10 -16 19 -8 30 0 20 15 -8 14 -22 14 -30 1z"/>
<path d="M3182 4108 c-20 -20 -14 -23 40 -25 l52 -1 -24 19 c-29 22 -51 24
-68 7z"/>
<path d="M3326 4104 c-9 -24 -8 -26 14 -19 10 3 29 1 40 -5 32 -17 39 -2 10
20 -31 24 -56 25 -64 4z"/>
<path d="M2985 4060 c-18 -34 -14 -37 20 -14 14 9 34 14 45 11 25 -6 26 1 3
19 -29 22 -51 16 -68 -16z"/>
<path d="M2877 4000 c-19 -31 -9 -42 13 -15 7 8 21 15 31 15 12 0 16 5 13 15
-10 25 -38 17 -57 -15z"/>
<path d="M3436 3994 c-3 -9 -6 -16 -6 -17 0 -1 10 -2 23 -3 12 0 31 -4 42 -8
15 -6 13 -2 -8 18 -33 30 -43 32 -51 10z"/>
<path d="M3280 3981 c-15 -29 -13 -32 15 -19 19 8 31 8 50 0 29 -14 33 -2 7
21 -25 23 -59 21 -72 -2z"/>
<path d="M3114 3955 c-20 -31 -14 -41 17 -25 12 7 37 10 55 7 42 -7 43 3 5 26
-40 23 -58 21 -77 -8z"/>
<path d="M2961 3924 c-30 -38 -28 -64 2 -36 13 12 33 22 46 22 24 0 20 14 -9
30 -15 8 -23 5 -39 -16z"/>
<path d="M2836 3861 c-22 -42 -21 -43 19 -18 35 23 40 40 12 45 -9 2 -22 -9
-31 -27z"/>
<path d="M2492 3438 c-7 -7 -12 -16 -12 -22 0 -6 5 -5 12 2 7 7 21 12 33 12
16 0 17 2 5 10 -19 13 -24 12 -38 -2z"/>
<path d="M2392 3428 c-7 -7 -12 -16 -12 -22 0 -6 5 -5 12 2 7 7 20 12 31 12
10 0 15 5 12 10 -8 14 -28 13 -43 -2z"/>
<path d="M2306 3354 c-11 -29 -6 -37 12 -21 10 10 24 17 30 17 7 0 12 5 12 10
0 16 -47 11 -54 -6z"/>
</g>
</svg>
