<?xml version="1.0" standalone="no"?>
<!DOCTYPE svg PUBLIC "-//W3C//DTD SVG 20010904//EN"
 "http://www.w3.org/TR/2001/REC-SVG-20010904/DTD/svg10.dtd">
<svg version="1.0" xmlns="http://www.w3.org/2000/svg"
 width="500.000000pt" height="500.000000pt" viewBox="0 0 500.000000 500.000000"
 preserveAspectRatio="xMidYMid meet">

<g transform="translate(0.000000,500.000000) scale(0.100000,-0.100000)"
fill="#000000" stroke="none">
<path d="M2698 4480 c-26 -22 -60 -64 -76 -93 -87 -153 -192 -487 -192 -613 0
-46 6 -73 25 -108 28 -53 26 -66 -11 -66 -31 0 -43 -28 -19 -46 10 -8 19 -28
20 -48 2 -30 -5 -42 -52 -88 -30 -29 -77 -83 -105 -120 -27 -38 -52 -68 -54
-68 -3 0 -46 25 -96 55 -84 51 -138 69 -138 45 0 -5 20 -18 45 -29 25 -11 72
-39 105 -62 66 -46 74 -69 41 -110 l-19 -23 -63 22 c-35 12 -72 22 -82 22 -35
0 -11 -24 44 -42 29 -10 62 -27 72 -37 18 -18 18 -20 -13 -82 -18 -35 -68
-116 -111 -181 -43 -64 -90 -140 -105 -169 -68 -136 -103 -292 -111 -495 -6
-160 1 -202 40 -258 12 -16 20 -42 19 -57 -2 -19 5 -33 20 -43 19 -14 25 -32
35 -109 17 -132 44 -208 115 -322 73 -117 159 -208 243 -255 33 -18 62 -35 64
-37 3 -2 -13 -21 -34 -43 -32 -33 -36 -42 -25 -55 19 -22 33 -19 84 20 26 19
50 35 55 35 22 0 21 -23 -3 -51 -29 -35 -34 -67 -10 -76 10 -4 32 11 64 42 47
46 49 47 84 35 20 -6 36 -13 36 -15 0 -3 -9 -22 -21 -44 -37 -71 6 -85 64 -21
40 45 39 45 139 26 132 -25 381 -39 576 -32 l182 7 20 -46 c19 -44 43 -65 58
-50 4 4 7 25 7 48 l0 42 57 3 56 3 32 -46 c36 -52 67 -58 63 -12 -2 15 -4 39
-5 54 -3 23 2 28 30 37 31 8 36 6 69 -27 19 -21 42 -37 49 -37 27 0 27 31 0
59 -14 15 -26 32 -26 37 0 6 22 25 49 42 27 18 56 43 64 56 15 22 24 24 104
28 112 5 147 22 282 135 118 100 188 192 240 317 58 139 73 271 47 397 -19 87
-46 139 -96 182 -41 35 -138 77 -178 77 -28 0 -31 6 -48 117 -15 105 -54 278
-86 386 -27 91 -23 97 56 97 36 0 68 5 71 10 7 12 1 13 -92 10 -64 -1 -73 1
-83 20 -24 46 -11 61 75 86 44 12 113 27 153 34 39 6 70 16 66 21 -9 15 -43
11 -173 -21 -69 -17 -129 -29 -134 -27 -5 1 -20 41 -34 87 -28 101 -67 188
-116 260 l-36 53 24 23 c29 26 32 49 10 71 -14 13 -10 20 38 67 68 66 80 104
79 263 -2 329 -67 586 -163 650 l-37 24 -39 -20 c-57 -29 -99 -101 -158 -273
-29 -84 -60 -173 -69 -197 -34 -92 -49 -168 -47 -234 l2 -67 -31 -6 c-20 -5
-30 -12 -30 -25 0 -10 -4 -20 -9 -23 -13 -8 -138 17 -240 48 -71 22 -104 26
-205 26 -67 0 -137 -4 -155 -10 -41 -11 -56 -2 -64 39 -4 18 1 42 13 67 11 21
20 50 20 65 0 15 -15 132 -34 260 -54 364 -89 449 -189 449 -35 0 -50 -7 -89
-40z m6 -1151 c61 -17 114 -55 136 -99 30 -58 28 -160 -4 -214 -45 -77 -150
-113 -243 -82 -58 19 -94 53 -122 116 -26 58 -26 109 0 169 22 52 58 84 117
106 46 17 67 18 116 4z m1180 -163 c37 -15 96 -84 116 -135 17 -43 15 -122 -3
-158 -51 -96 -177 -131 -285 -77 -57 28 -84 65 -103 137 -15 61 -1 112 43 163
63 71 159 101 232 70z m-804 -641 c23 -8 61 -15 85 -15 48 0 219 -57 289 -96
60 -34 155 -121 213 -196 l45 -59 -27 -111 c-21 -89 -25 -123 -20 -172 9 -77
22 -101 79 -152 43 -39 46 -44 36 -70 -6 -15 -9 -33 -6 -41 9 -22 36 -15 48
12 15 33 32 27 33 -11 0 -22 5 -30 23 -32 13 -2 24 3 27 12 16 51 17 52 33 14
14 -37 34 -49 47 -28 3 5 1 19 -5 30 -14 26 -4 45 16 29 17 -14 19 -171 4
-268 -25 -150 -135 -278 -318 -370 -90 -46 -184 -54 -497 -48 -282 6 -337 12
-522 57 -229 55 -403 141 -501 247 -103 112 -201 336 -205 472 -2 60 0 66 18
66 17 0 20 6 17 38 -3 35 2 43 55 95 51 49 62 68 85 137 15 44 30 95 34 114 9
50 145 196 225 244 78 46 220 93 320 105 124 16 321 14 369 -3z"/>
<path d="M2598 3215 c-49 -27 -62 -80 -33 -134 16 -33 33 -41 81 -41 46 0 70
14 88 49 18 34 7 88 -23 115 -26 24 -81 29 -113 11z"/>
<path d="M3773 3055 c-38 -16 -53 -42 -53 -90 0 -47 14 -71 51 -90 24 -13 37
-14 64 -5 75 25 98 105 48 159 -34 36 -68 44 -110 26z"/>
<path d="M2403 2179 c-41 -12 -127 -107 -149 -164 -20 -53 -10 -88 30 -106 20
-10 33 -6 88 25 69 38 111 44 167 25 46 -16 76 14 76 75 0 94 -116 174 -212
145z"/>
<path d="M2854 2174 c-52 -19 -111 -74 -135 -128 -24 -52 -24 -79 -1 -99 26
-24 54 -21 122 13 80 41 100 39 160 -15 53 -47 74 -54 104 -32 24 17 33 96 16
139 -22 56 -60 106 -95 122 -41 20 -116 19 -171 0z"/>
<path d="M3372 2064 c-50 -25 -132 -105 -132 -128 1 -33 20 -41 103 -41 l83 0
66 -57 c36 -32 74 -58 85 -58 36 0 53 31 53 96 0 68 -23 126 -66 166 -59 54
-114 61 -192 22z"/>
<path d="M1092 2848 c-11 -13 -35 -57 -53 -98 -32 -72 -33 -81 -37 -233 l-4
-157 -27 -5 c-14 -3 -50 -13 -79 -21 -29 -8 -57 -12 -62 -9 -6 4 -23 25 -37
48 -71 113 -278 307 -328 307 -41 0 -62 -30 -74 -102 -13 -78 -8 -104 62 -323
38 -121 41 -138 41 -240 -1 -90 -6 -125 -27 -194 -39 -123 -43 -209 -18 -381
18 -123 27 -156 61 -225 47 -97 93 -146 171 -185 55 -28 58 -32 53 -59 -8 -38
14 -52 34 -23 19 29 38 28 46 -3 4 -14 11 -25 16 -25 6 0 15 11 20 25 9 25 10
25 143 25 90 0 168 6 241 20 108 20 108 20 133 0 27 -21 43 -19 43 6 0 19 9
18 33 -3 18 -17 20 -17 39 10 11 15 28 27 39 27 25 0 24 18 -2 46 l-20 22 30
35 c45 51 77 129 101 247 18 87 21 125 16 225 -5 123 -35 257 -71 327 -44 83
-53 106 -64 156 -12 58 -47 133 -94 202 -19 26 -34 64 -38 95 -13 87 -40 199
-53 225 -119 223 -146 260 -192 260 -11 0 -30 -10 -42 -22z m274 -702 c41 -41
45 -82 12 -133 -42 -70 -125 -77 -178 -16 -33 37 -35 49 -19 106 13 46 57 77
113 77 30 0 45 -7 72 -34z m-527 -52 c30 -21 51 -73 51 -124 0 -33 -6 -48 -30
-72 -29 -29 -34 -30 -95 -26 -51 3 -70 9 -91 28 -41 39 -45 53 -29 108 17 56
29 69 82 88 51 18 84 17 112 -2z"/>
<path d="M1272 2108 c-17 -17 -15 -42 6 -61 33 -30 72 -15 72 28 0 12 -5 26
-12 33 -7 7 -21 12 -33 12 -12 0 -26 -5 -33 -12z"/>
<path d="M728 2005 c-10 -22 -9 -29 9 -46 39 -40 88 1 58 47 -20 32 -52 31
-67 -1z"/>
</g>
</svg>
