<?xml version="1.0" standalone="no"?>
<!DOCTYPE svg PUBLIC "-//W3C//DTD SVG 20010904//EN"
 "http://www.w3.org/TR/2001/REC-SVG-20010904/DTD/svg10.dtd">
<svg version="1.0" xmlns="http://www.w3.org/2000/svg"
 width="225.000000pt" height="225.000000pt" viewBox="0 0 225.000000 225.000000"
 preserveAspectRatio="xMidYMid meet">

<g transform="translate(0.000000,225.000000) scale(0.100000,-0.100000)"
fill="#000000" stroke="none">
<path d="M1120 1911 c0 -4 -35 -11 -78 -14 -44 -2 -92 -12 -108 -20 -26 -13
-41 -13 -127 1 -54 8 -100 12 -103 9 -4 -3 8 -21 25 -39 17 -18 43 -61 58 -94
l26 -62 41 19 c63 29 69 26 62 -26 -4 -25 -4 -51 1 -57 18 -28 9 -60 -24 -85
-18 -14 -33 -30 -33 -36 0 -6 -10 -21 -21 -33 l-22 -23 -43 31 c-24 17 -47 29
-50 25 -3 -3 17 -22 46 -43 62 -45 56 -61 -20 -45 -28 6 -61 11 -73 10 -21 -1
-20 -1 3 -9 14 -5 44 -14 68 -20 63 -16 52 -31 -20 -24 -46 4 -59 3 -48 -5 8
-6 32 -11 53 -11 20 0 37 -3 37 -8 0 -4 -78 -7 -174 -6 -147 1 -177 4 -191 18
-22 22 -28 20 -15 -4 9 -17 8 -20 -11 -20 -17 0 -19 -3 -10 -14 9 -11 8 -15
-6 -21 -16 -6 -15 -8 5 -16 13 -5 20 -13 17 -19 -3 -5 -1 -10 5 -10 7 0 39
-26 73 -59 34 -32 73 -61 87 -64 14 -4 47 -23 74 -44 40 -31 47 -41 42 -62
-10 -39 -24 -281 -19 -321 13 -122 27 -187 44 -209 10 -13 19 -29 19 -35 0
-14 107 -118 138 -135 12 -6 22 -18 22 -26 0 -18 14 -19 41 -5 13 8 19 7 19 0
0 -6 15 -8 39 -4 21 3 47 2 56 -3 11 -7 30 -5 58 4 22 8 47 11 56 7 16 -7 69
-12 144 -13 26 0 55 11 95 35 121 75 131 84 171 168 64 132 84 261 61 401 -6
35 -6 61 -1 65 5 3 -5 48 -23 100 -18 52 -31 100 -29 106 2 5 -8 21 -22 34
-14 13 -25 28 -25 33 0 5 -14 30 -31 55 l-30 45 56 -6 c69 -7 65 1 -7 17 -80
19 -74 36 13 36 94 0 80 18 -16 22 -74 3 -74 5 20 40 41 15 53 23 39 26 -11 2
-44 -6 -73 -18 -65 -25 -68 -25 -75 3 -3 12 -22 42 -43 67 -36 42 -52 93 -32
106 5 3 9 18 9 34 0 21 7 33 28 44 76 43 110 56 145 56 20 0 37 4 37 10 0 5
-25 34 -55 64 -62 63 -113 82 -185 72 -123 -18 -146 -18 -159 -2 -15 17 -31
21 -31 7z m-53 -183 c22 -21 24 -21 37 -3 10 13 15 15 21 6 4 -8 -1 -25 -14
-42 -11 -15 -21 -33 -21 -38 0 -5 -19 -11 -42 -13 l-43 -3 -13 49 c-10 40 -10
51 0 58 23 14 51 9 75 -14z m156 -10 c27 -10 31 -17 27 -51 -1 -10 4 -25 10
-33 17 -19 1 -19 -61 3 -48 17 -49 18 -49 61 0 47 1 48 73 20z m-107 -125 c-8
-9 -94 -16 -111 -9 -13 4 -14 10 -5 26 12 22 70 29 70 8 0 -7 10 -2 23 10 l22
23 3 -27 c2 -14 1 -28 -2 -31z m144 6 c0 -11 -51 -29 -80 -29 -27 0 -30 3 -30
34 l0 33 55 -16 c30 -9 55 -19 55 -22z m-272 -131 c21 -21 14 -57 -12 -70 -45
-20 -74 8 -62 57 5 19 13 25 34 25 15 0 33 -5 40 -12z m343 -9 c23 -23 22 -47
-3 -63 -25 -16 -72 4 -76 32 -7 49 42 68 79 31z m-211 -24 c0 -16 -9 -19 -36
-8 -16 6 -16 7 2 14 29 11 34 10 34 -6z m50 5 c0 -5 -7 -10 -15 -10 -8 0 -15
5 -15 10 0 6 7 10 15 10 8 0 15 -4 15 -10z m-280 -110 c0 -13 -20 -13 -40 0
-12 8 -9 10 13 10 15 0 27 -4 27 -10z m90 -10 c0 -21 -10 -24 -47 -14 -37 10
-28 34 12 34 28 0 35 -4 35 -20z m120 -10 c0 -32 -9 -36 -69 -24 -24 5 -31 12
-31 30 0 22 4 24 50 24 49 0 50 -1 50 -30z m30 0 c0 -16 -4 -30 -10 -30 -5 0
-10 14 -10 30 0 17 5 30 10 30 6 0 10 -13 10 -30z m80 0 c0 -27 -3 -30 -30
-30 -27 0 -30 3 -30 30 0 27 3 30 30 30 27 0 30 -3 30 -30z m100 11 c0 -21
-19 -31 -56 -31 -19 0 -24 5 -24 25 0 23 4 25 40 25 33 0 40 -4 40 -19z m79 3
c7 -6 -2 -11 -31 -18 -24 -5 -28 -3 -28 14 0 17 4 19 28 14 15 -4 29 -8 31
-10z m-214 -74 c3 -5 2 -10 -4 -10 -5 0 -8 -9 -6 -20 2 -11 -1 -20 -6 -20 -6
0 -7 -4 -4 -10 3 -5 1 -10 -5 -10 -6 0 -8 11 -4 28 3 15 6 33 6 40 2 14 14 16
23 2z m-55 -47 c-1 -25 -2 -26 -14 -10 -16 21 -26 22 -26 3 0 -11 -9 -13 -33
-9 -28 4 -37 1 -56 -22 -24 -32 -22 -41 7 -26 14 7 36 7 77 -2 52 -11 58 -10
71 7 13 18 14 17 29 -16 8 -20 30 -53 49 -73 29 -30 34 -42 29 -66 -5 -28 9
-41 22 -19 9 15 36 12 57 -7 17 -15 18 -15 18 1 0 13 6 15 28 10 15 -4 31 -13
35 -21 7 -11 10 -11 22 0 22 22 75 9 88 -22 15 -36 16 -45 23 -142 4 -59 3
-89 -5 -93 -6 -4 -11 -15 -11 -24 0 -39 -59 -139 -106 -181 -250 -222 -624
-121 -724 196 -21 68 -8 242 24 327 34 90 59 129 106 166 45 36 94 47 208 49
l82 1 0 -27z"/>
<path d="M940 1435 c0 -8 7 -15 15 -15 8 0 15 7 15 15 0 8 -7 15 -15 15 -8 0
-15 -7 -15 -15z"/>
<path d="M1282 1434 c4 -21 22 -23 26 -1 2 10 -3 17 -13 17 -10 0 -15 -6 -13
-16z"/>
<path d="M863 1162 c-13 -8 -36 -62 -26 -62 4 0 14 7 24 16 13 12 22 13 38 5
26 -14 31 -14 31 2 0 15 -31 47 -46 47 -5 0 -14 -4 -21 -8z"/>
<path d="M1087 1012 c-41 -43 -35 -54 19 -35 43 15 49 15 76 -2 39 -23 43 -15
15 26 -31 46 -72 51 -110 11z"/>
<path d="M886 1005 c-14 -13 -26 -29 -26 -35 0 -15 32 -12 58 6 21 15 25 15
43 -2 18 -16 19 -16 19 7 0 52 -50 65 -94 24z"/>
<path d="M750 981 c-14 -27 -14 -27 30 -26 41 0 44 3 34 29 -9 22 -51 20 -64
-3z"/>
</g>
</svg>
