<?xml version="1.0" standalone="no"?>
<!DOCTYPE svg PUBLIC "-//W3C//DTD SVG 20010904//EN"
 "http://www.w3.org/TR/2001/REC-SVG-20010904/DTD/svg10.dtd">
<svg version="1.0" xmlns="http://www.w3.org/2000/svg"
 width="800.000000pt" height="800.000000pt" viewBox="0 0 800.000000 800.000000"
 preserveAspectRatio="xMidYMid meet">

<g transform="translate(0.000000,800.000000) scale(0.100000,-0.100000)"
fill="#000000" stroke="none">
<path d="M2323 7539 c-149 -75 -364 -465 -482 -874 -45 -156 -70 -485 -52
-680 26 -271 83 -458 201 -665 28 -48 50 -98 50 -110 0 -15 -22 -43 -66 -83
-163 -149 -265 -382 -329 -746 -13 -79 -27 -147 -30 -149 -3 -3 -67 0 -143 6
-160 14 -393 15 -613 2 -184 -11 -215 -16 -198 -36 23 -28 361 -121 722 -200
89 -19 171 -41 183 -49 22 -14 32 -55 26 -105 -3 -22 -21 -34 -140 -89 -183
-84 -274 -138 -370 -221 -71 -61 -122 -122 -122 -145 0 -19 86 7 215 65 157
70 267 110 302 110 l23 0 -19 -38 c-11 -20 -54 -84 -95 -142 -248 -344 -382
-847 -346 -1302 19 -250 58 -394 161 -600 66 -133 116 -207 202 -297 91 -95
241 -220 352 -292 22 -15 86 -57 143 -93 56 -37 102 -72 102 -77 0 -6 -29 -39
-65 -73 -63 -61 -77 -87 -53 -102 6 -4 297 -10 647 -15 409 -5 852 -17 1241
-34 664 -29 861 -30 902 -3 37 24 54 71 38 107 -10 25 -187 210 -219 231 -7 4
-62 -1 -124 -10 -223 -35 -396 -43 -747 -37 -343 7 -463 17 -760 63 -328 50
-495 99 -710 205 -443 219 -642 458 -657 785 -6 134 2 154 80 181 40 14 82 18
177 18 139 -1 169 -8 357 -81 116 -46 193 -58 193 -29 0 30 -301 306 -409 376
-25 16 -53 29 -63 29 -30 0 -92 -36 -160 -93 -87 -73 -109 -87 -137 -87 -23 0
-24 2 -18 53 10 81 52 209 116 353 91 203 155 288 326 432 322 271 763 463
1236 539 160 25 598 25 744 0 239 -42 456 -117 717 -248 123 -62 132 -58 164
71 19 80 137 309 184 361 52 56 74 58 116 14 57 -61 107 -176 140 -325 13 -59
17 -120 15 -284 l-1 -209 97 7 c69 5 128 3 202 -8 155 -24 158 -23 163 22 6
47 -7 157 -27 226 -9 30 -48 107 -87 172 -77 129 -113 202 -104 211 3 4 53 -6
110 -20 58 -15 112 -24 121 -21 19 8 65 95 65 123 0 31 -40 60 -140 102 -52
21 -101 46 -107 56 -16 21 -17 84 -2 116 6 14 21 30 33 36 32 16 131 38 231
51 50 6 158 23 240 36 205 34 287 59 256 78 -32 20 -306 62 -501 76 -158 11
-251 26 -275 44 -10 7 -25 68 -45 178 -35 192 -60 268 -141 428 -50 99 -158
275 -179 290 -18 14 -40 57 -40 80 0 14 23 69 50 122 134 258 211 638 196 964
-24 507 -180 920 -445 1171 -74 70 -143 79 -195 24 -76 -79 -185 -515 -232
-931 -28 -244 -9 -641 33 -725 9 -16 49 -65 89 -107 85 -89 97 -124 40 -115
-19 3 -82 26 -139 51 -181 79 -363 130 -592 168 -126 20 -584 17 -710 -5 -231
-41 -410 -99 -590 -192 -108 -56 -170 -70 -181 -41 -8 20 9 47 71 117 64 71
86 125 114 275 58 308 72 523 47 744 -33 292 -169 745 -244 813 -31 29 -81 31
-129 6z m247 -3066 c63 -29 134 -95 161 -151 40 -82 26 -224 -28 -284 -25 -28
-43 -22 -43 15 0 43 -29 99 -60 114 -34 17 -105 16 -140 -2 -44 -23 -60 -53
-60 -112 0 -46 4 -58 35 -92 48 -53 45 -60 -21 -49 -69 11 -158 55 -201 100
-81 84 -102 224 -50 330 32 65 90 120 151 142 58 22 196 15 256 -11z m2272
-65 c145 -67 203 -192 159 -345 -11 -40 -54 -103 -71 -103 -4 0 -5 20 -3 43 7
62 -17 104 -74 129 -57 25 -101 18 -148 -23 -60 -53 -57 -150 5 -203 17 -13
30 -28 30 -32 0 -3 -24 -4 -53 -2 -195 16 -317 245 -227 425 32 64 76 103 147
129 57 22 167 13 235 -18z m-1117 -340 c157 -36 191 -62 163 -122 -14 -28 -33
-42 -100 -75 -89 -44 -180 -71 -238 -71 -72 0 -291 100 -336 152 -42 51 -34
61 74 100 140 49 270 54 437 16z"/>
<path d="M5026 3608 c-40 -46 -113 -190 -145 -283 -40 -119 -52 -182 -61 -310
-8 -129 -15 -165 -30 -165 -4 0 -11 27 -15 60 -4 33 -15 70 -25 82 l-17 22
-48 -29 c-83 -48 -305 -286 -305 -327 0 -13 30 -9 130 18 52 14 133 36 179 49
59 16 90 30 103 46 18 23 19 23 33 5 17 -23 39 -117 38 -170 0 -29 -12 -55
-52 -112 -77 -111 -91 -156 -102 -319 -17 -255 -20 -271 -72 -352 -173 -269
-217 -470 -162 -739 46 -222 119 -337 286 -451 73 -50 77 -59 44 -93 -36 -38
-28 -56 31 -64 83 -11 818 -7 853 5 36 13 37 14 12 55 -24 39 -47 44 -216 44
-164 0 -411 24 -528 51 -273 64 -437 254 -440 509 -2 149 50 251 150 297 58
27 88 28 266 7 46 -5 57 -4 57 7 0 25 -28 55 -107 119 -43 35 -82 69 -86 76
-12 21 11 47 78 93 133 91 281 126 495 118 165 -5 256 -26 379 -83 51 -24 100
-44 107 -44 18 0 61 76 68 120 3 19 10 88 16 152 10 134 39 218 103 301 49 64
53 86 31 173 l-18 73 42 133 c60 188 75 266 75 393 0 127 -14 176 -113 381
-96 198 -131 223 -182 128 -59 -110 -78 -215 -92 -507 -8 -156 -17 -272 -23
-278 -8 -8 -34 -3 -88 16 -68 23 -92 26 -199 26 -66 0 -148 -5 -181 -11 -33
-5 -77 -10 -99 -10 -35 0 -38 2 -32 23 42 148 50 318 22 496 -30 195 -71 311
-111 311 -7 0 -29 -19 -49 -42z m69 -1122 c69 -29 100 -119 66 -190 -44 -90
-147 -100 -242 -24 -34 27 -48 82 -33 122 8 20 38 21 54 1 19 -22 54 -18 80
10 22 23 22 35 5 78 -9 22 21 23 70 3z m756 -11 c95 -50 91 -210 -7 -251 -46
-19 -99 -11 -152 23 -55 36 -77 93 -56 147 8 21 19 20 53 -5 27 -20 30 -20 58
-5 36 18 47 40 33 66 -6 10 -10 23 -10 29 0 16 47 13 81 -4z m-399 -236 c18
-9 18 -13 5 -32 -18 -28 -68 -33 -101 -11 -27 17 -34 49 -13 58 16 7 85 -2
109 -15z"/>
<path d="M3497 3255 c-68 -35 -414 -366 -402 -384 4 -7 37 1 88 20 344 129
435 131 639 8 46 -28 100 -59 120 -70 39 -20 88 -25 88 -9 0 37 -399 415 -465
440 -34 13 -35 13 -68 -5z"/>
<path d="M2205 3053 c-153 -104 -465 -372 -465 -399 0 -18 62 -3 180 43 137
54 210 67 318 60 88 -6 170 -29 285 -81 64 -29 185 -62 194 -53 17 18 -22 68
-169 214 -170 169 -239 228 -279 238 -17 4 -36 -3 -64 -22z"/>
<path d="M2864 2427 c-72 -53 -165 -137 -262 -237 -81 -82 -108 -117 -99 -127
8 -7 86 20 212 72 76 32 104 39 180 42 99 5 125 -1 335 -76 195 -70 219 -50
93 77 -125 125 -344 292 -383 292 -10 0 -44 -19 -76 -43z"/>
<path d="M3944 2379 c-162 -134 -314 -285 -314 -312 0 -19 18 -14 143 36 237
96 327 91 615 -37 118 -52 172 -66 172 -44 0 15 -156 171 -275 274 -44 38 -82
71 -85 74 -30 32 -118 90 -135 90 -13 0 -63 -33 -121 -81z"/>
<path d="M6227 2375 c-54 -19 -79 -45 -142 -151 -76 -128 -84 -154 -91 -317
-3 -78 -7 -152 -10 -165 -2 -13 -30 -50 -60 -83 -71 -77 -81 -102 -94 -234
-11 -107 -24 -180 -55 -300 -26 -100 -30 -272 -10 -430 21 -174 35 -208 90
-216 84 -14 958 -21 1124 -10 146 10 172 15 240 43 81 34 151 92 151 125 0 56
-99 100 -251 113 -49 4 -94 11 -98 16 -5 5 -14 59 -20 119 -15 136 -61 418
-96 585 -53 255 -51 237 -27 268 112 138 159 220 187 327 18 71 19 163 3 217
-13 44 -59 88 -91 88 -41 -1 -104 -38 -161 -95 -75 -74 -117 -142 -150 -240
-15 -44 -36 -89 -47 -100 -25 -26 -105 -24 -181 5 -56 21 -58 23 -58 58 0 20
9 71 20 112 24 90 25 170 5 210 -27 53 -112 79 -178 55z m-31 -733 c30 -23 44
-54 44 -103 0 -126 -145 -174 -244 -81 -37 35 -48 65 -36 97 11 29 27 31 69 8
29 -17 31 -17 58 3 20 15 28 31 30 55 1 19 2 38 2 43 1 12 49 -2 77 -22z m498
-17 c74 -68 56 -191 -32 -215 -97 -26 -192 32 -192 117 0 47 13 57 42 33 15
-11 36 -20 47 -20 30 0 61 35 61 68 0 50 31 57 74 17z"/>
<path d="M5286 1711 c-69 -59 -101 -100 -90 -110 5 -5 44 -1 88 7 84 17 96 15
213 -29 34 -13 65 -21 69 -17 16 16 -66 113 -150 176 -44 33 -68 28 -130 -27z"/>
<path d="M5773 1533 c-33 -29 -103 -123 -103 -139 0 -20 40 -17 78 6 42 26 73
77 70 114 -4 36 -19 42 -45 19z"/>
</g>
</svg>
