<?xml version="1.0" standalone="no"?>
<!DOCTYPE svg PUBLIC "-//W3C//DTD SVG 20010904//EN"
 "http://www.w3.org/TR/2001/REC-SVG-20010904/DTD/svg10.dtd">
<svg version="1.0" xmlns="http://www.w3.org/2000/svg"
 width="452.000000pt" height="452.000000pt" viewBox="0 0 452.000000 452.000000"
 preserveAspectRatio="xMidYMid meet">

<g transform="translate(0.000000,452.000000) scale(0.100000,-0.100000)"
fill="#000000" stroke="none">
<path d="M1672 4396 c-40 -51 -57 -140 -56 -296 0 -127 3 -152 23 -204 13 -32
38 -75 56 -95 20 -23 34 -51 38 -77 l7 -42 -65 -33 c-142 -73 -219 -154 -306
-324 -36 -69 -60 -105 -71 -105 -9 0 -127 16 -263 35 -136 19 -252 32 -256 29
-5 -3 -9 -13 -9 -23 0 -15 35 -25 241 -67 132 -27 246 -52 252 -56 8 -5 7 -16
-4 -40 l-16 -32 -286 3 c-286 3 -287 3 -287 -18 0 -12 1 -21 3 -22 1 0 120
-11 265 -23 144 -13 264 -25 267 -28 7 -7 -15 -70 -29 -84 -6 -6 -108 -28
-226 -49 -264 -45 -249 -41 -243 -65 7 -25 12 -25 246 1 104 11 191 18 194 16
10 -10 -30 -82 -67 -123 -102 -111 -213 -319 -284 -535 -79 -237 -122 -492
-133 -780 -7 -185 1 -239 45 -302 31 -46 110 -94 169 -103 23 -3 46 -11 51
-18 5 -6 24 -56 42 -111 88 -269 220 -497 394 -682 l49 -53 847 0 847 0 49 53
c180 192 326 453 414 742 17 55 24 62 72 69 101 16 184 92 209 191 26 103 -4
485 -57 739 -65 309 -206 624 -349 784 -42 47 -82 118 -72 129 3 2 90 -5 194
-16 235 -26 239 -26 246 -1 6 24 26 18 -243 65 -113 20 -211 39 -219 44 -15 8
-45 81 -36 89 2 3 109 13 237 23 295 24 298 25 298 50 0 21 -3 21 -287 18
l-286 -3 -15 32 c-9 17 -13 34 -10 38 3 3 117 28 252 57 208 43 246 54 246 68
0 10 -4 20 -9 23 -4 3 -120 -10 -256 -29 -136 -19 -255 -35 -264 -35 -11 0
-27 21 -47 62 -45 96 -136 229 -186 274 -26 22 -83 60 -127 85 l-81 44 6 40
c4 24 20 55 40 79 62 73 78 132 78 296 1 123 -2 156 -21 216 -12 39 -31 78
-42 88 -18 17 -21 17 -55 1 -74 -35 -167 -167 -211 -300 -25 -73 -27 -89 -22
-188 3 -64 1 -120 -5 -138 -10 -29 -11 -29 -62 -22 -66 10 -386 10 -452 0 -51
-7 -52 -7 -62 22 -6 18 -8 74 -5 138 5 99 3 115 -21 188 -51 149 -152 284
-232 309 -16 5 -27 0 -42 -18z m145 -936 c98 -59 77 -214 -34 -251 -89 -29
-183 42 -183 137 0 36 36 97 68 117 37 23 109 21 149 -3z m1054 -18 c64 -64
65 -140 3 -199 -86 -81 -220 -32 -232 85 -8 91 48 152 142 152 43 0 53 -4 87
-38z m-504 -163 c59 -22 22 -78 -67 -99 -92 -22 -219 45 -166 89 34 28 170 34
233 10z m102 -474 c442 -84 803 -417 949 -876 43 -136 62 -262 62 -418 0 -234
-41 -415 -139 -616 -375 -768 -1321 -943 -1913 -354 -174 173 -305 417 -363
675 -26 112 -31 390 -10 515 71 428 332 794 690 969 118 57 170 76 285 100
110 24 326 26 439 5z"/>
<path d="M1696 3394 c-61 -61 14 -158 82 -107 54 40 32 123 -33 123 -18 0 -41
-7 -49 -16z"/>
<path d="M2725 3386 c-22 -34 -15 -75 17 -99 68 -51 143 46 82 107 -25 25 -81
20 -99 -8z"/>
<path d="M2195 2524 c-16 -8 -42 -27 -57 -41 -32 -31 -75 -109 -65 -119 4 -4
38 8 75 27 89 45 135 45 224 0 37 -19 71 -32 75 -28 10 10 -20 69 -56 110 -56
63 -134 84 -196 51z"/>
<path d="M1639 2417 c-65 -43 -141 -172 -125 -212 5 -13 17 -6 63 35 94 85
132 94 234 60 34 -12 63 -19 66 -16 11 10 -32 78 -73 116 -37 34 -50 40 -87
40 -29 0 -55 -8 -78 -23z"/>
<path d="M2716 2400 c-41 -38 -84 -106 -73 -116 3 -3 32 4 66 16 103 34 142
25 233 -59 47 -43 59 -50 64 -37 9 23 -22 99 -60 149 -46 60 -90 87 -143 87
-37 0 -50 -6 -87 -40z"/>
<path d="M1958 2160 c-44 -13 -88 -50 -119 -98 -26 -41 -38 -82 -24 -82 3 0
34 16 71 35 46 25 79 35 109 35 30 0 64 -11 111 -35 37 -19 68 -35 70 -35 11
0 2 49 -13 70 -59 90 -137 131 -205 110z"/>
<path d="M2477 2155 c-45 -15 -69 -35 -108 -89 -24 -32 -40 -86 -25 -86 2 0
33 16 70 35 47 24 81 35 111 35 30 0 63 -10 109 -35 37 -19 68 -35 71 -35 14
0 2 41 -24 83 -52 81 -132 117 -204 92z"/>
<path d="M1455 2001 c-68 -41 -156 -173 -132 -197 4 -4 30 12 59 34 104 80
152 89 248 47 47 -20 55 -21 58 -8 5 22 -47 93 -87 120 -42 28 -104 30 -146 4z"/>
<path d="M2919 1997 c-40 -27 -92 -98 -87 -120 3 -13 11 -12 58 8 96 42 144
33 248 -47 29 -22 55 -38 58 -35 12 12 -9 69 -44 116 -72 97 -161 127 -233 78z"/>
</g>
</svg>
